<svg xmlns="http://www.w3.org/2000/svg" xml:space="preserve" style="enable-background:new 0 0 117.1 27.5" viewBox="0 0 117.1 27.5"><path d="M10.9 12.7.1 24.1c.3 1.2 1.5 2.2 2.8 2.2.5 0 1-.1 1.5-.4l12.1-7-5.6-6.2" style="fill:#e84336"/><path d="m21.7 10.8-5.2-3-5.9 5.2 5.9 5.9 5.2-3c.9-.5 1.5-1.5 1.5-2.6.1-1.1-.6-2-1.5-2.5z" style="fill:#fbbc08"/><path d="M.1 2.5c-.1.2-.1.4-.1.7v20.2c0 .3 0 .5.1.7L11.2 13 .1 2.5" style="fill:#517bbd"/><path d="m10.9 13.3 5.6-5.6L4.4.7C4 .5 3.5.3 2.9.3 1.6.3.4 1.2.1 2.5l10.8 10.8" style="fill:#31a853"/><path d="M98 23.4h1.9V10.8H98v12.6zm17-8.1-2.2 5.5h-.1l-2.2-5.5h-2l3.4 7.7-1.9 4.3h2l5.2-11.9-2.2-.1zM104.3 22c-.6 0-1.5-.3-1.5-1.1 0-1 1.1-1.3 2-1.3.8 0 1.2.2 1.7.4-.1 1.1-1.1 2-2.2 2zm.2-7c-1.4 0-2.8.6-3.4 1.9l1.7.7c.4-.7 1-.9 1.7-.9 1 0 2 .6 2 1.6v.1c-.3-.2-1.1-.5-2-.5-1.8 0-3.6 1-3.6 2.8 0 1.7 1.5 2.8 3.1 2.8 1.3 0 2-.6 2.4-1.2h.1v1h1.8v-4.8c0-2.2-1.6-3.5-3.8-3.5zm-11.7 1.8h-2.7v-4.3h2.7c1.4 0 2.2 1.2 2.2 2.2.1 1-.7 2.1-2.2 2.1zm0-6h-4.5v12.6h1.9v-4.8h2.6c2.1 0 4.1-1.5 4.1-3.9s-2-3.9-4.1-3.9zM68.2 22c-1.3 0-2.4-1.1-2.4-2.6s1.1-2.6 2.4-2.6 2.3 1.1 2.3 2.6-1.1 2.6-2.3 2.6zm2.1-6c-.5-.5-1.3-1-2.3-1-2.1 0-4.1 1.9-4.1 4.3s2 4.3 4.1 4.3c1 0 1.8-.5 2.3-1h.1v.6c0 1.6-.9 2.5-2.3 2.5-1.2 0-1.9-.8-2.2-1.5l-1.7.8c.5 1.1 1.7 2.5 3.8 2.5 2.2 0 4.1-1.3 4.1-4.5v-7.7h-1.8v.7zm3.1 7.4h1.9V10.8h-1.9v12.6zm4.7-4.2c0-1.7 1.3-2.5 2.2-2.5.8 0 1.4.4 1.6.9l-3.8 1.6zm5.9-1.4c-.4-1-1.4-2.7-3.7-2.7-2.2 0-4.1 1.7-4.1 4.3 0 2.4 1.8 4.3 4.3 4.3 2 0 3.1-1.2 3.6-1.9l-1.5-1c-.5.7-1.2 1.2-2.1 1.2-1 0-1.6-.4-2.1-1.3l5.7-2.4-.1-.5zm-45.8-1.4v1.8h4.4c-.1 1-.5 1.8-1 2.3-.6.6-1.6 1.3-3.4 1.3-2.7 0-4.8-2.2-4.8-4.9s2.1-4.9 4.8-4.9c1.4 0 2.5.6 3.3 1.3l1.3-1.3c-1.1-1-2.5-1.8-4.6-1.8-3.7 0-6.8 3-6.8 6.7s3.1 6.7 6.8 6.7c2 0 3.5-.7 4.7-1.9 1.2-1.2 1.6-2.9 1.6-4.3 0-.4 0-.8-.1-1.1h-6.2v.1zM49.4 22c-1.3 0-2.4-1.1-2.4-2.6s1.1-2.6 2.4-2.6 2.4 1.1 2.4 2.6-1.1 2.6-2.4 2.6zm0-6.9c-2.4 0-4.3 1.8-4.3 4.3s1.9 4.3 4.3 4.3 4.3-1.8 4.3-4.3-2-4.3-4.3-4.3zm9.4 6.9c-1.3 0-2.4-1.1-2.4-2.6s1.1-2.6 2.4-2.6 2.4 1.1 2.4 2.6-1.1 2.6-2.4 2.6zm0-6.9c-2.4 0-4.3 1.8-4.3 4.3s1.9 4.3 4.3 4.3 4.3-1.8 4.3-4.3-1.9-4.3-4.3-4.3zM37.8 3h-2.9v.7h2.2c-.1.6-.3 1.1-.7 1.4-.4.3-.9.5-1.5.5-.7 0-1.2-.2-1.7-.7-.4-.5-.7-1-.7-1.7s.2-1.3.7-1.7c.5-.5 1-.7 1.7-.7.3 0 .7.1 1 .2s.5.3.7.5l.6-.6c-.3-.3-.6-.5-1-.7-.5-.1-.9-.2-1.3-.2-.9 0-1.6.3-2.2.9-.6.6-.9 1.4-.9 2.3s.3 1.6.9 2.3c.5.5 1.3.9 2.2.9s1.7-.3 2.2-.9c.5-.5.8-1.2.8-2 0-.2-.1-.4-.1-.5zM39 .1v6.1h3.6v-.7h-2.8v-2h2.5v-.7h-2.5V.9h2.8V.1H39zm8.5.8V.1h-4.2v.7H45v5.3h.8V.9h1.7zm3.8-.8h-.8v6.1h.8V.1zm5.1.8V.1h-4.2v.7H54v5.3h.8V.9h1.6zm7.9 0C63.7.3 63 0 62.1 0s-1.6.3-2.2.9c-.6.6-.9 1.4-.9 2.3s.3 1.7.9 2.3c.6.6 1.3.9 2.2.9s1.6-.3 2.2-.9c.6-.6.9-1.4.9-2.3 0-.9-.3-1.7-.9-2.3zm-3.9.5c.4-.5 1-.7 1.7-.7s1.2.2 1.7.7c.4.4.7 1 .7 1.7s-.2 1.3-.7 1.7c-.4.5-1 .7-1.7.7s-1.2-.2-1.7-.7c-.4-.5-.7-1-.7-1.7.1-.6.3-1.2.7-1.7zm6.7 1V1.2l3.1 5h.8V.1h-.8v4.8l-3-4.7h-1v6.1h.8l.1-3.9z" style="fill:#fff"/></svg>