<?xml version="1.0" encoding="UTF-8"?><svg id="Layer_1" xmlns="http://www.w3.org/2000/svg" viewBox="0 0 117.2 27.5"><defs><style>.cls-1{fill:#31a853;}.cls-2{fill:#517bbd;}.cls-3{fill:#e84336;}.cls-4{fill:#fbbc08;}.cls-5{fill:#faf6eb;}</style></defs><path class="cls-3" d="m10.9,12.7L.1,24.1c.3,1.2,1.5,2.2,2.8,2.2.5,0,1-.1,1.5-.4l12.1-7-5.6-6.2"/><path class="cls-4" d="m21.7,10.8l-5.2-3-5.9,5.2,5.9,5.9,5.2-3c.9-.5,1.5-1.5,1.5-2.6.1-1.1-.6-2-1.5-2.5Z"/><path class="cls-2" d="m.1,2.5c-.1.2-.1.4-.1.7v20.2c0,.3,0,.5.1.7l11.1-11.1L.1,2.5"/><path class="cls-1" d="m10.9,13.3l5.6-5.6L4.4.7c-.4-.2-.9-.4-1.5-.4C1.6.3.4,1.2.1,2.5l10.8,10.8"/><path class="cls-5" d="m98,23.4h1.9v-12.6h-1.9s0,12.6,0,12.6Zm17-8.1l-2.2,5.5h-.1l-2.2-5.5h-2l3.4,7.7-1.9,4.3h2l5.2-11.9s-2.2-.1-2.2-.1Zm-10.7,6.7c-.6,0-1.5-.3-1.5-1.1,0-1,1.1-1.3,2-1.3.8,0,1.2.2,1.7.4-.1,1.1-1.1,2-2.2,2Zm.2-7c-1.4,0-2.8.6-3.4,1.9l1.7.7c.4-.7,1-.9,1.7-.9,1,0,2,.6,2,1.6v.1c-.3-.2-1.1-.5-2-.5-1.8,0-3.6,1-3.6,2.8,0,1.7,1.5,2.8,3.1,2.8,1.3,0,2-.6,2.4-1.2h.1v1h1.8v-4.8c0-2.2-1.6-3.5-3.8-3.5Zm-11.7,1.8h-2.7v-4.3h2.7c1.4,0,2.2,1.2,2.2,2.2.1,1-.7,2.1-2.2,2.1Zm0-6h-4.5v12.6h1.9v-4.8h2.6c2.1,0,4.1-1.5,4.1-3.9s-2-3.9-4.1-3.9Zm-24.6,11.2c-1.3,0-2.4-1.1-2.4-2.6s1.1-2.6,2.4-2.6,2.3,1.1,2.3,2.6-1.1,2.6-2.3,2.6Zm2.1-6c-.5-.5-1.3-1-2.3-1-2.1,0-4.1,1.9-4.1,4.3s2,4.3,4.1,4.3c1,0,1.8-.5,2.3-1h.1v.6c0,1.6-.9,2.5-2.3,2.5-1.2,0-1.9-.8-2.2-1.5l-1.7.8c.5,1.1,1.7,2.5,3.8,2.5s4.1-1.3,4.1-4.5v-7.7h-1.8v.7Zm3.1,7.4h1.9v-12.6h-1.9s0,12.6,0,12.6Zm4.7-4.2c0-1.7,1.3-2.5,2.2-2.5.8,0,1.4.4,1.6.9,0,0-3.8,1.6-3.8,1.6Zm5.9-1.4c-.4-1-1.4-2.7-3.7-2.7s-4.1,1.7-4.1,4.3c0,2.4,1.8,4.3,4.3,4.3,2,0,3.1-1.2,3.6-1.9l-1.5-1c-.5.7-1.2,1.2-2.1,1.2-1,0-1.6-.4-2.1-1.3l5.7-2.4s-.1-.5-.1-.5Zm-45.8-1.4v1.8h4.4c-.1,1-.5,1.8-1,2.3-.6.6-1.6,1.3-3.4,1.3-2.7,0-4.8-2.2-4.8-4.9s2.1-4.9,4.8-4.9c1.4,0,2.5.6,3.3,1.3l1.3-1.3c-1.1-1-2.5-1.8-4.6-1.8-3.7,0-6.8,3-6.8,6.7s3.1,6.7,6.8,6.7c2,0,3.5-.7,4.7-1.9,1.2-1.2,1.6-2.9,1.6-4.3,0-.4,0-.8-.1-1.1h-6.2v.1Zm11.2,5.6c-1.3,0-2.4-1.1-2.4-2.6s1.1-2.6,2.4-2.6,2.4,1.1,2.4,2.6-1.1,2.6-2.4,2.6Zm0-6.9c-2.4,0-4.3,1.8-4.3,4.3s1.9,4.3,4.3,4.3,4.3-1.8,4.3-4.3-2-4.3-4.3-4.3Zm9.4,6.9c-1.3,0-2.4-1.1-2.4-2.6s1.1-2.6,2.4-2.6,2.4,1.1,2.4,2.6-1.1,2.6-2.4,2.6Zm0-6.9c-2.4,0-4.3,1.8-4.3,4.3s1.9,4.3,4.3,4.3,4.3-1.8,4.3-4.3-1.9-4.3-4.3-4.3ZM37.8,3h-2.9v.7h2.2c-.1.6-.3,1.1-.7,1.4-.4.3-.9.5-1.5.5-.7,0-1.2-.2-1.7-.7-.4-.5-.7-1-.7-1.7s.2-1.3.7-1.7c.5-.5,1-.7,1.7-.7.3,0,.7.1,1,.2.3.1.5.3.7.5l.6-.6c-.3-.3-.6-.5-1-.7-.5-.1-.9-.2-1.3-.2-.9,0-1.6.3-2.2.9-.6.6-.9,1.4-.9,2.3s.3,1.6.9,2.3c.5.5,1.3.9,2.2.9s1.7-.3,2.2-.9c.5-.5.8-1.2.8-2,0-.2-.1-.4-.1-.5Zm1.2-2.9v6.1h3.6v-.7h-2.8v-2h2.5v-.7h-2.5V.9h2.8V.1h-3.6Zm8.5.8V.1h-4.2v.7h1.7v5.3h.8V.9s1.7,0,1.7,0Zm3.8-.8h-.8v6.1h.8s0-6.1,0-6.1Zm5.1.8V.1h-4.2v.7h1.8v5.3h.8V.9s1.6,0,1.6,0Zm7.9,0C63.7.3,63,0,62.1,0s-1.6.3-2.2.9c-.6.6-.9,1.4-.9,2.3s.3,1.7.9,2.3c.6.6,1.3.9,2.2.9s1.6-.3,2.2-.9.9-1.4.9-2.3-.3-1.7-.9-2.3Zm-3.9.5c.4-.5,1-.7,1.7-.7s1.2.2,1.7.7c.4.4.7,1,.7,1.7s-.2,1.3-.7,1.7c-.4.5-1,.7-1.7.7s-1.2-.2-1.7-.7c-.4-.5-.7-1-.7-1.7.1-.6.3-1.2.7-1.7Zm6.7,1v-1.2l3.1,5h.8V.1h-.8v4.8l-3-4.7h-1v6.1h.8l.1-3.9Z"/></svg>