<svg xmlns="http://www.w3.org/2000/svg" xml:space="preserve" style="enable-background:new 0 0 108.5 27.3" viewBox="0 0 108.5 27.3"><path d="M16.1 12.9c0-.9.3-1.8.7-2.6.4-.8 1.1-1.5 1.9-1.9-.5-.7-1.1-1.3-1.9-1.7-.8-.4-1.6-.6-2.5-.7-1.8-.2-3.6 1.1-4.5 1.1-1 0-2.4-1.1-3.9-1-1 0-2 .3-2.8.8-.9.6-1.6 1.3-2.1 2.2-2.1 3.7-.5 9 1.5 12 1 1.4 2.2 3.1 3.7 3 1.5-.1 2.1-1 3.9-1 1.8 0 2.3 1 3.9.9 1.6 0 2.6-1.5 3.6-2.9.7-1 1.3-2.2 1.7-3.4-.9-.4-1.7-1.1-2.3-1.9-.6-.8-.9-1.8-.9-2.9zM13.2 4.1c.9-1.1 1.3-2.4 1.2-3.8-1.4.1-2.6.8-3.5 1.8-.4.5-.8 1.1-1 1.7-.2.6-.3 1.3-.3 2 .7 0 1.3-.1 2-.4.6-.3 1.1-.8 1.6-1.3zM35.2 20.4H30l-1.2 3.7h-2.2l4.9-13.5h2.3l4.9 13.5h-2.2l-1.3-3.7zm-4.6-1.7h4.1l-2-5.9h-.1l-2 5.9zM49.3 19.1c0 3.1-1.6 5-4.1 5-.6 0-1.3-.1-1.8-.4-.5-.3-1-.8-1.3-1.3v4.9h-2V14.2h2v1.6c.3-.5.8-1 1.3-1.3.6-.3 1.2-.5 1.8-.4 2.4 0 4.1 2 4.1 5zm-2.1 0c0-2-1-3.3-2.6-3.3-1.5 0-2.6 1.3-2.6 3.3 0 2 1 3.3 2.6 3.3 1.5 0 2.6-1.3 2.6-3.3zM60.1 19.1c0 3.1-1.6 5-4.1 5-.6 0-1.3-.1-1.8-.4-.5-.3-1-.8-1.3-1.3v4.9h-2V14.2h2v1.6c.3-.5.8-1 1.3-1.3.6-.3 1.2-.5 1.8-.4 2.5 0 4.1 2 4.1 5zm-2.1 0c0-2-1-3.3-2.6-3.3-1.5 0-2.6 1.3-2.6 3.3 0 2 1 3.3 2.6 3.3s2.6-1.3 2.6-3.3zM67.3 20.3c.2 1.3 1.5 2.2 3.2 2.2 1.7 0 2.9-.9 2.9-2.1 0-1.1-.7-1.7-2.5-2.1l-1.8-.4c-2.5-.6-3.6-1.8-3.6-3.6 0-2.3 2-3.9 4.9-3.9 2.9 0 4.8 1.6 4.9 3.9h-2c-.1-1.4-1.2-2.2-2.9-2.2-1.6 0-2.7.8-2.7 2 0 1 .7 1.5 2.5 2l1.5.4c2.8.7 3.9 1.8 3.9 3.8 0 2.5-2 4.1-5.2 4.1-3 0-5-1.5-5.2-4l2.1-.1zM80 11.8v2.3h1.9v1.6H80v5.4c0 .8.4 1.2 1.2 1.2h.7V24c-.4.1-.7.1-1.1.1-2 0-2.8-.8-2.8-2.7v-5.7h-1.4v-1.6H78v-2.3h2zM83 19.1c0-3.1 1.8-5.1 4.7-5.1 2.9 0 4.7 2 4.7 5.1 0 3.1-1.8 5.1-4.7 5.1-2.9 0-4.7-2-4.7-5.1zm7.2 0c0-2.1-1-3.4-2.6-3.4S85 17 85 19.1c0 2.1 1 3.4 2.6 3.4 1.7 0 2.6-1.2 2.6-3.4zM94 14.2h1.9v1.7c.1-.5.4-1 .9-1.3.4-.3 1-.5 1.5-.5.2 0 .5 0 .7.1V16c-.3-.1-.6-.1-.9-.1-.3 0-.6 0-.9.2-.3.1-.5.3-.7.5-.2.2-.4.5-.4.8-.1.2-.1.5-.1.8v5.9h-2v-9.9zM108.4 21.2c-.3 1.8-2 3-4.2 3-2.9 0-4.7-1.9-4.7-5s1.8-5.1 4.6-5.1c2.7 0 4.4 1.9 4.4 4.9v.7h-7v.1c0 .4 0 .7.1 1.1.1.3.3.7.6.9.3.3.6.5.9.6.3.1.7.2 1.1.2.5 0 1-.1 1.4-.3.4-.3.7-.6.9-1.1h1.9zm-6.9-3h4.9c0-.3 0-.7-.1-1-.1-.3-.3-.6-.5-.8-.2-.2-.5-.4-.8-.5-.3-.1-.6-.2-1-.2-.3 0-.7.1-1 .2-.3.1-.6.3-.8.5-.2.2-.4.5-.5.8-.1.4-.2.7-.2 1zM30.4.3c.4 0 .9 0 1.2.2.4.2.8.4 1 .7.3.3.5.7.6 1.1.1.4.2.8.1 1.3 0 2.1-1.1 3.3-3.1 3.3H28V.3h2.4zM29 5.9h1.2c.3 0 .6 0 .9-.1.3-.1.5-.3.7-.5.2-.2.4-.5.4-.8.1-.3.1-.6.1-.9 0-.3 0-.6-.1-.9-.1-.3-.2-.6-.4-.8-.2-.2-.5-.4-.7-.5-.3-.1-.6-.2-.9-.1H29v4.6zM34.6 4.4c0-.3 0-.6.1-1 .1-.3.3-.6.5-.8.2-.2.5-.4.8-.6.3-.1.6-.2.9-.2.3 0 .6.1.9.2.3.1.6.3.8.6.2.2.4.5.5.8.1.3.1.6.1 1 0 .3 0 .6-.1 1-.1.3-.3.6-.5.8-.2.2-.5.4-.8.6-.3.1-.6.2-.9.2-.3 0-.6-.1-.9-.2-.3-.1-.6-.3-.8-.6-.2-.2-.4-.5-.5-.8-.1-.4-.2-.7-.1-1zm3.6 0c0-1.1-.5-1.7-1.3-1.7s-1.3.6-1.3 1.7.5 1.7 1.3 1.7 1.3-.7 1.3-1.7zM45.4 6.8h-1l-1-3.6h-.1l-1 3.6h-1l-1.4-4.9h1l.9 3.7h.1l1-3.7h.9l1 3.7h.1l.9-3.7h1l-1.4 4.9zM47.8 1.9h.9v.8h.1c.2-.3.4-.5.6-.7.3-.2.6-.2.9-.2.2 0 .5 0 .7.1.2.1.4.2.6.4.2.2.3.4.4.6V6.8h-1V3.9c0-.8-.3-1.2-1.1-1.2-.2 0-.3 0-.5.1s-.3.2-.4.3c-.1.1-.2.3-.2.4-.1.2-.1.3-.1.5v2.9h-1v-5zM53.6 0h1v6.8h-1V0zM55.9 4.4c0-.3 0-.6.1-1 .1-.3.3-.6.5-.8.2-.2.5-.4.8-.6.3-.1.6-.2.9-.2.3 0 .6.1.9.2.3.1.6.3.8.6.2.2.4.5.5.8s.1.6.1 1c0 .3 0 .6-.1 1-.1.3-.3.6-.5.8s-.5.4-.8.6c-.3.1-.6.2-.9.2-.3 0-.6-.1-.9-.2-.3-.1-.6-.3-.8-.6-.2-.2-.4-.5-.5-.8-.1-.4-.2-.7-.1-1zm3.6 0c0-1.1-.5-1.7-1.3-1.7s-1.3.6-1.3 1.7.5 1.7 1.3 1.7 1.3-.7 1.3-1.7zM61.5 5.4c0-.9.7-1.4 1.8-1.5l1.3-.1v-.3c0-.5-.3-.8-1-.8-.5 0-.9.2-1 .5h-.9c.1-.8.9-1.4 2-1.4 1.2 0 1.9.6 1.9 1.6v3.4h-.9v-.7h-.1l-.6.6c-.3.1-.5.2-.8.2-.2 0-.4 0-.6-.1-.2-.1-.4-.2-.5-.3-.2-.1-.3-.3-.4-.5-.1-.2-.2-.4-.2-.6zm3.2-.4v-.4l-1.2.1c-.7 0-1 .3-1 .7 0 .4.4.7.9.7h.5c.1 0 .3-.1.4-.2.1-.1.2-.2.3-.4 0-.2.1-.3.1-.5zM66.9 4.4c0-1.6.8-2.5 2-2.5.3 0 .6.1.9.2.3.2.5.4.6.6h.1V0h1v6.8h-.9V6h-.1c-.2.3-.4.5-.7.6-.3.2-.6.2-.9.2-1.2.1-2-.9-2-2.4zm1 0c0 1 .5 1.7 1.3 1.7s1.3-.6 1.3-1.7c0-1-.5-1.7-1.3-1.7s-1.3.6-1.3 1.7zM75.5 4.4c0-.3 0-.6.1-1s.3-.6.5-.8c.2-.2.5-.4.8-.6.3-.1.6-.2.9-.2.3 0 .6.1.9.2.3.1.6.3.8.6.2.2.4.5.5.8s.1.6.1 1c0 .3 0 .6-.1 1-.1.3-.3.6-.5.8s-.5.4-.8.6c-.3.1-.6.2-.9.2-.3 0-.6-.1-.9-.2-.3-.1-.6-.3-.8-.6s-.4-.5-.5-.8c-.1-.4-.1-.7-.1-1zm3.6 0c0-1.1-.5-1.7-1.3-1.7s-1.3.6-1.3 1.7.5 1.7 1.3 1.7c.9 0 1.3-.7 1.3-1.7zM81.4 1.9h.9v.8h.1c.2-.3.4-.5.6-.7.3-.2.6-.2.9-.2.2 0 .5 0 .7.1.2.1.4.3.6.4.2.2.3.4.4.6.1.2.1.5.1.7v3.2h-1V3.9c0-.8-.3-1.2-1.1-1.2-.2 0-.3 0-.5.1s-.3.2-.4.3c-.1.1-.2.3-.2.4-.1.2-.1.3-.1.5v2.9h-1v-5zM91.1.7v1.2h1.1v.8h-1.1v2.5c0 .5.2.7.7.7h.4v.8h-.5c-1.1 0-1.5-.4-1.5-1.3V2.8h-.8v-.9h.8V.7h.9zM93.5 0h1v2.7h.1c.1-.3.3-.5.6-.7.3-.2.6-.2.9-.2.2 0 .5 0 .7.1.2.1.4.2.6.4.2.2.3.4.4.6s.1.5.1.7v3.2h-1V3.9c0-.8-.4-1.2-1.1-1.2-.2 0-.3 0-.5.1-.3 0-.4.1-.5.2-.1.1-.2.3-.3.4s-.1.4-.1.6v2.9h-1V0zM103.3 5.5c-.1.4-.4.8-.8 1.1-.4.3-.9.4-1.3.3-.3 0-.6-.1-.9-.2-.3-.1-.6-.3-.8-.6-.2-.2-.4-.5-.5-.8-.1-.3-.1-.6-.1-1 0-.3 0-.6.1-1 .1-.3.3-.6.5-.8.2-.2.5-.4.8-.6.3-.1.6-.2.9-.2 1.4 0 2.2.9 2.2 2.5v.3h-3.5v.1c0 .2 0 .4.1.5.1.2.2.3.3.5.1.1.3.2.4.3.2.1.3.1.5.1s.5 0 .7-.1c.2-.1.4-.3.5-.5h.9zm-3.4-1.6h2.5c0-.2 0-.3-.1-.5s-.1-.3-.3-.4c-.1-.1-.3-.2-.4-.3-.2-.1-.3-.1-.5-.1s-.3 0-.5.1-.3.2-.4.3c-.1.1-.2.3-.3.4.1.2 0 .4 0 .5z" style="fill:#fff"/></svg>