<?xml version="1.0" encoding="UTF-8"?><svg id="Layer_1" xmlns="http://www.w3.org/2000/svg" viewBox="0 0 108.49 27.3"><defs><style>.cls-1{fill:#faf6eb;}</style></defs><path class="cls-1" d="m16.09,12.9c0-.9.3-1.8.7-2.6.4-.8,1.1-1.5,1.9-1.9-.5-.7-1.1-1.3-1.9-1.7-.8-.4-1.6-.6-2.5-.7-1.8-.2-3.6,1.1-4.5,1.1-1,0-2.4-1.1-3.9-1-1,0-2,.3-2.8.8-.9.6-1.6,1.3-2.1,2.2-2.1,3.7-.5,9,1.5,12,1,1.4,2.2,3.1,3.7,3s2.1-1,3.9-1,2.3,1,3.9.9c1.6,0,2.6-1.5,3.6-2.9.7-1,1.3-2.2,1.7-3.4-.9-.4-1.7-1.1-2.3-1.9-.6-.8-.9-1.8-.9-2.9Zm-2.9-8.8c.9-1.1,1.3-2.4,1.2-3.8-1.4.1-2.6.8-3.5,1.8-.4.5-.8,1.1-1,1.7s-.3,1.3-.3,2c.7,0,1.3-.1,2-.4.6-.3,1.1-.8,1.6-1.3Zm22,16.3h-5.2l-1.2,3.7h-2.2l4.9-13.5h2.3l4.9,13.5h-2.2l-1.3-3.7Zm-4.6-1.7h4.1l-2-5.9h-.1s-2,5.9-2,5.9Zm18.7.4c0,3.1-1.6,5-4.1,5-.6,0-1.3-.1-1.8-.4s-1-.8-1.3-1.3v4.9h-2v-13.1h2v1.6c.3-.5.8-1,1.3-1.3.6-.3,1.2-.5,1.8-.4,2.4,0,4.1,2,4.1,5Zm-2.1,0c0-2-1-3.3-2.6-3.3-1.5,0-2.6,1.3-2.6,3.3s1,3.3,2.6,3.3c1.5,0,2.6-1.3,2.6-3.3Zm12.9,0c0,3.1-1.6,5-4.1,5-.6,0-1.3-.1-1.8-.4s-1-.8-1.3-1.3v4.9h-2v-13.1h2v1.6c.3-.5.8-1,1.3-1.3.6-.3,1.2-.5,1.8-.4,2.5,0,4.1,2,4.1,5Zm-2.1,0c0-2-1-3.3-2.6-3.3-1.5,0-2.6,1.3-2.6,3.3s1,3.3,2.6,3.3,2.6-1.3,2.6-3.3Zm9.3,1.2c.2,1.3,1.5,2.2,3.2,2.2s2.9-.9,2.9-2.1c0-1.1-.7-1.7-2.5-2.1l-1.8-.4c-2.5-.6-3.6-1.8-3.6-3.6,0-2.3,2-3.9,4.9-3.9s4.8,1.6,4.9,3.9h-2c-.1-1.4-1.2-2.2-2.9-2.2-1.6,0-2.7.8-2.7,2,0,1,.7,1.5,2.5,2l1.5.4c2.8.7,3.9,1.8,3.9,3.8,0,2.5-2,4.1-5.2,4.1-3,0-5-1.5-5.2-4,0,0,2.1-.1,2.1-.1Zm12.7-8.5v2.3h1.9v1.6h-1.9v5.4c0,.8.4,1.2,1.2,1.2h.7v1.7c-.4.1-.7.1-1.1.1-2,0-2.8-.8-2.8-2.7v-5.7h-1.4v-1.6h1.4v-2.3s2,0,2,0Zm3,7.3c0-3.1,1.8-5.1,4.7-5.1s4.7,2,4.7,5.1-1.8,5.1-4.7,5.1-4.7-2-4.7-5.1Zm7.2,0c0-2.1-1-3.4-2.6-3.4s-2.6,1.3-2.6,3.4,1,3.4,2.6,3.4c1.7,0,2.6-1.2,2.6-3.4Zm3.8-4.9h1.9v1.7c.1-.5.4-1,.9-1.3.4-.3,1-.5,1.5-.5.2,0,.5,0,.7.1v1.8c-.3-.1-.6-.1-.9-.1s-.6,0-.9.2c-.3.1-.5.3-.7.5s-.4.5-.4.8c-.1.2-.1.5-.1.8v5.9h-2s0-9.9,0-9.9Zm14.4,7c-.3,1.8-2,3-4.2,3-2.9,0-4.7-1.9-4.7-5s1.8-5.1,4.6-5.1,4.4,1.9,4.4,4.9v.7h-7v.1c0,.4,0,.7.1,1.1.1.3.3.7.6.9.3.3.6.5.9.6s.7.2,1.1.2c.5,0,1-.1,1.4-.3.4-.3.7-.6.9-1.1,0,0,1.9,0,1.9,0Zm-6.9-3h4.9c0-.3,0-.7-.1-1s-.3-.6-.5-.8c-.2-.2-.5-.4-.8-.5s-.6-.2-1-.2c-.3,0-.7.1-1,.2-.3.1-.6.3-.8.5-.2.2-.4.5-.5.8-.1.4-.2.7-.2,1ZM30.39.3c.4,0,.9,0,1.2.2.4.2.8.4,1,.7.3.3.5.7.6,1.1s.2.8.1,1.3c0,2.1-1.1,3.3-3.1,3.3h-2.2V.3h2.4Zm-1.4,5.6h1.2c.3,0,.6,0,.9-.1s.5-.3.7-.5c.2-.2.4-.5.4-.8.1-.3.1-.6.1-.9s0-.6-.1-.9-.2-.6-.4-.8c-.2-.2-.5-.4-.7-.5-.3-.1-.6-.2-.9-.1h-1.2v4.6Zm5.6-1.5c0-.3,0-.6.1-1,.1-.3.3-.6.5-.8s.5-.4.8-.6c.3-.1.6-.2.9-.2s.6.1.9.2c.3.1.6.3.8.6.2.2.4.5.5.8s.1.6.1,1c0,.3,0,.6-.1,1-.1.3-.3.6-.5.8-.2.2-.5.4-.8.6-.3.1-.6.2-.9.2s-.6-.1-.9-.2c-.3-.1-.6-.3-.8-.6-.2-.2-.4-.5-.5-.8-.1-.4-.2-.7-.1-1Zm3.6,0c0-1.1-.5-1.7-1.3-1.7s-1.3.6-1.3,1.7.5,1.7,1.3,1.7,1.3-.7,1.3-1.7Zm7.2,2.4h-1l-1-3.6h-.1l-1,3.6h-1l-1.4-4.9h1l.9,3.7h.1l1-3.7h.9l1,3.7h.1l.9-3.7h1l-1.4,4.9Zm2.4-4.9h.9v.8h.1c.2-.3.4-.5.6-.7.3-.2.6-.2.9-.2.2,0,.5,0,.7.1s.4.2.6.4c.2.2.3.4.4.6v3.9h-1v-2.9c0-.8-.3-1.2-1.1-1.2-.2,0-.3,0-.5.1s-.3.2-.4.3c-.1.1-.2.3-.2.4-.1.2-.1.3-.1.5v2.9h-1s.1-5,.1-5Zm5.8-1.9h1v6.8h-1V0Zm2.3,4.4c0-.3,0-.6.1-1,.1-.3.3-.6.5-.8s.5-.4.8-.6c.3-.1.6-.2.9-.2s.6.1.9.2c.3.1.6.3.8.6.2.2.4.5.5.8s.1.6.1,1c0,.3,0,.6-.1,1-.1.3-.3.6-.5.8s-.5.4-.8.6c-.3.1-.6.2-.9.2s-.6-.1-.9-.2c-.3-.1-.6-.3-.8-.6-.2-.2-.4-.5-.5-.8-.1-.4-.2-.7-.1-1Zm3.6,0c0-1.1-.5-1.7-1.3-1.7s-1.3.6-1.3,1.7.5,1.7,1.3,1.7,1.3-.7,1.3-1.7Zm2,1c0-.9.7-1.4,1.8-1.5l1.3-.1v-.3c0-.5-.3-.8-1-.8-.5,0-.9.2-1,.5h-.9c.1-.8.9-1.4,2-1.4,1.2,0,1.9.6,1.9,1.6v3.4h-.9v-.7h-.1l-.6.6c-.3.1-.5.2-.8.2-.2,0-.4,0-.6-.1-.2-.1-.4-.2-.5-.3-.2-.1-.3-.3-.4-.5-.1-.2-.2-.4-.2-.6Zm3.2-.4v-.4l-1.2.1c-.7,0-1,.3-1,.7s.4.7.9.7h.5c.1,0,.3-.1.4-.2s.2-.2.3-.4c0-.2.1-.3.1-.5Zm2.2-.6c0-1.6.8-2.5,2-2.5.3,0,.6.1.9.2.3.2.5.4.6.6h.1V0h1v6.8h-.9v-.8h-.1c-.2.3-.4.5-.7.6-.3.2-.6.2-.9.2-1.2.1-2-.9-2-2.4Zm1,0c0,1,.5,1.7,1.3,1.7s1.3-.6,1.3-1.7c0-1-.5-1.7-1.3-1.7s-1.3.6-1.3,1.7Zm7.6,0c0-.3,0-.6.1-1s.3-.6.5-.8.5-.4.8-.6c.3-.1.6-.2.9-.2s.6.1.9.2c.3.1.6.3.8.6.2.2.4.5.5.8s.1.6.1,1c0,.3,0,.6-.1,1-.1.3-.3.6-.5.8s-.5.4-.8.6c-.3.1-.6.2-.9.2s-.6-.1-.9-.2-.6-.3-.8-.6-.4-.5-.5-.8c-.1-.4-.1-.7-.1-1Zm3.6,0c0-1.1-.5-1.7-1.3-1.7s-1.3.6-1.3,1.7.5,1.7,1.3,1.7c.9,0,1.3-.7,1.3-1.7Zm2.3-2.5h.9v.8h.1c.2-.3.4-.5.6-.7.3-.2.6-.2.9-.2.2,0,.5,0,.7.1s.4.3.6.4c.2.2.3.4.4.6s.1.5.1.7v3.2h-1v-2.9c0-.8-.3-1.2-1.1-1.2-.2,0-.3,0-.5.1s-.3.2-.4.3-.2.3-.2.4c-.1.2-.1.3-.1.5v2.9h-1V1.9Zm9.7-1.2v1.2h1.1v.8h-1.1v2.5c0,.5.2.7.7.7h.4v.8h-.5c-1.1,0-1.5-.4-1.5-1.3v-2.6h-.8v-.9h.8V.7h.9Zm2.4-.7h1v2.7h.1c.1-.3.3-.5.6-.7.3-.2.6-.2.9-.2.2,0,.5,0,.7.1s.4.2.6.4.3.4.4.6.1.5.1.7v3.2h-1v-2.9c0-.8-.4-1.2-1.1-1.2-.2,0-.3,0-.5.1-.3,0-.4.1-.5.2s-.2.3-.3.4-.1.4-.1.6v2.9h-1s.1-6.9.1-6.9Zm9.8,5.5c-.1.4-.4.8-.8,1.1-.4.3-.9.4-1.3.3-.3,0-.6-.1-.9-.2s-.6-.3-.8-.6c-.2-.2-.4-.5-.5-.8s-.1-.6-.1-1c0-.3,0-.6.1-1,.1-.3.3-.6.5-.8s.5-.4.8-.6c.3-.1.6-.2.9-.2,1.4,0,2.2.9,2.2,2.5v.3h-3.5v.1c0,.2,0,.4.1.5.1.2.2.3.3.5.1.1.3.2.4.3.2.1.3.1.5.1s.5,0,.7-.1.4-.3.5-.5c0,0,.9.1.9.1Zm-3.4-1.6h2.5c0-.2,0-.3-.1-.5s-.1-.3-.3-.4c-.1-.1-.3-.2-.4-.3-.2-.1-.3-.1-.5-.1s-.3,0-.5.1-.3.2-.4.3-.2.3-.3.4c.1.2,0,.4,0,.5Z"/></svg>