<?xml version="1.0" encoding="UTF-8"?><svg id="Layer_1" xmlns="http://www.w3.org/2000/svg" xmlns:xlink="http://www.w3.org/1999/xlink" viewBox="0 0 32.72 33"><defs><style>.cls-1,.cls-2{fill:#386641;}.cls-3{fill:#fff;}.cls-3,.cls-2{fill-rule:evenodd;}.cls-4{fill:none;mask:url(#mask);}.cls-5{fill:#f5f5f7;}</style><mask id="mask" x="0" y="0" width="32.72" height="33" maskUnits="userSpaceOnUse"><g id="path-1-inside-1_392_3724-2"><path class="cls-3" d="m13.94,1.82C7.24,1.82,1.82,7.24,1.82,13.94c0,4.52,2.47,8.46,6.13,10.54l.43,5.58c.08,1.06,1.39,1.51,2.1.72l4.31-4.73h3.99c6.69,0,12.12-5.43,12.12-12.12S25.48,1.82,18.78,1.82h-4.85Z"/></g></mask></defs><g id="path-1-inside-1_392_3724"><path class="cls-3" d="m13.94,1.82C7.24,1.82,1.82,7.24,1.82,13.94c0,4.52,2.47,8.46,6.13,10.54l.43,5.58c.08,1.06,1.39,1.51,2.1.72l4.31-4.73h3.99c6.69,0,12.12-5.43,12.12-12.12S25.48,1.82,18.78,1.82h-4.85Z"/></g><path class="cls-2" d="m13.94,1.82C7.24,1.82,1.82,7.24,1.82,13.94c0,4.52,2.47,8.46,6.13,10.54l.43,5.58c.08,1.06,1.39,1.51,2.1.72l4.31-4.73h3.99c6.69,0,12.12-5.43,12.12-12.12S25.48,1.82,18.78,1.82h-4.85Z"/><g class="cls-4"><path class="cls-1" d="m7.95,24.48l1.81-.14-.07-.96-.84-.48-.9,1.58Zm.43,5.58l-1.81.14h0l1.81-.14Zm2.1.72l1.34,1.22-1.34-1.22Zm4.31-4.73v-1.82h-.8l-.54.59,1.34,1.22ZM3.64,13.94c0-5.69,4.61-10.3,10.3-10.3V0C6.24,0,0,6.24,0,13.94h3.64Zm5.22,8.96c-3.12-1.77-5.22-5.12-5.22-8.96H0c0,5.2,2.84,9.73,7.05,12.12l1.8-3.16Zm1.34,7.02l-.43-5.58-3.62.28.43,5.58,3.62-.28Zm-1.05-.36c.36-.39,1.01-.17,1.05.36l-3.62.28c.2,2.65,3.47,3.77,5.26,1.81l-2.69-2.45Zm4.31-4.73l-4.31,4.73,2.69,2.45,4.31-4.73-2.69-2.45Zm5.33-.59h-3.99v3.64h3.99v-3.64Zm10.3-10.3c0,5.69-4.61,10.3-10.3,10.3v3.64c7.7,0,13.94-6.24,13.94-13.94h-3.64ZM18.78,3.64c5.69,0,10.3,4.61,10.3,10.3h3.64c0-7.7-6.24-13.94-13.94-13.94v3.64Zm-4.85,0h4.85V0h-4.85v3.64Z"/></g><path class="cls-5" d="m21.28,9.69l-3.05,3.93-.24-.54,4.96.41-.22,1.97-4.85-.49.24-.34,1.9,4.24-1.77.78-1.84-4.27.41.06-2.92,3.91-1.6-1.17,3.08-3.94.24.54-4.99-.4.21-2,4.87.52-.24.34-1.9-4.24,1.77-.78,1.84,4.27-.41-.06,2.91-3.94,1.62,1.2Z"/></svg>