<?xml version="1.0" encoding="UTF-8"?><svg id="Layer_1" xmlns="http://www.w3.org/2000/svg" viewBox="0 0 51.06 47.13"><defs><style>.cls-1{fill:#386641;}</style></defs><path class="cls-1" d="m38.08,25.53c1.51,0,3-.45,4.26-1.29,1.26-.84,2.24-2.04,2.82-3.44.58-1.4.73-2.94.44-4.43-.3-1.49-1.03-2.85-2.1-3.92-1.07-1.07-2.44-1.8-3.92-2.1-1.49-.3-3.03-.14-4.43.44-1.4.58-2.6,1.56-3.44,2.82-.84,1.26-1.29,2.74-1.29,4.26,0,2.03.81,3.98,2.24,5.42,1.44,1.44,3.38,2.24,5.42,2.24Z"/><path class="cls-1" d="m48.51,44.58c.68,0,1.33-.27,1.81-.75.48-.48.75-1.13.75-1.81,0-2.39-.67-4.72-1.94-6.75-1.26-2.02-3.07-3.65-5.21-4.7-2.14-1.05-4.54-1.48-6.91-1.24s-4.63,1.14-6.52,2.6c-2.5-2.49-5.68-4.19-9.15-4.87-3.46-.68-7.05-.33-10.31,1.02-3.26,1.35-6.05,3.64-8.01,6.57C1.05,37.6,0,41.05,0,44.58c0,.68.27,1.33.75,1.81.48.48,1.13.75,1.81.75h30.64c.68,0,1.33-.27,1.81-.75.48-.48.75-1.13.75-1.81"/><path class="cls-1" d="m17.55,20.43c2.02,0,3.99-.6,5.67-1.72,1.68-1.12,2.99-2.72,3.76-4.58.77-1.87.98-3.92.58-5.9-.39-1.98-1.37-3.8-2.8-5.23-1.43-1.43-3.25-2.4-5.23-2.8-1.98-.39-4.03-.19-5.9.58-1.87.77-3.46,2.08-4.58,3.76-1.12,1.68-1.72,3.65-1.72,5.67,0,2.71,1.08,5.31,2.99,7.22,1.92,1.92,4.51,2.99,7.22,2.99Z"/></svg>