<?xml version="1.0" encoding="UTF-8"?><svg id="Layer_1" xmlns="http://www.w3.org/2000/svg" viewBox="0 0 14.9 25.99"><defs><style>.cls-1{fill:#386641;stroke:#386641;stroke-width:1.5px;}</style></defs><path class="cls-1" d="m3.38,13.42h0s0,0,0,0h0s0-.01,0-.01l-.02-.03-.06-.12-.19-.39-.36-.72c-.16-.32-.3-.57-.47-.81-.16-.22-.35-.4-.58-.62-.37-.57-.59-1.03-.73-1.49-.14-.48-.21-1.01-.21-1.73C.75,3.85,3.88.75,7.54.75s6.61,3.07,6.61,6.74c0,.73-.05,1.26-.18,1.74-.13.48-.34.96-.71,1.6h0s0,.01,0,.01c-.18.33-.56.84-.83,1.11l-.09.09-.05.11c-.11.23-.22.42-.33.61-.03.06-.07.12-.1.18-.06.11-.12.23-.17.34-.03.07-.1.23-.12.41,0,.02-.01.05-.03.1,0,.02-.01.04-.02.06-.03.1-.06.23-.1.37-.09.35-.18.82-.18,1.32,0,.07,0,.13,0,.2,0,.3,0,.53-.02.74-.02.18-.05.25-.06.26-.33.28-.97.43-1.77.48-.38.02-.75.01-1.08,0-.11,0-.22,0-.32-.02-.19,0-.36-.02-.48-.02-.13,0-.29,0-.47.02-.37.02-.83.04-1.39.01-.39-.02-.77-.07-1.1-.15-.33-.09-.56-.2-.7-.33,0,0,0,0,0,0,0,0-.01-.02-.02-.05-.02-.05-.04-.13-.06-.25-.02-.12-.03-.26-.04-.43,0-.03,0-.06,0-.09,0-.14-.02-.29-.03-.45-.05-.46-.1-.91-.15-1.25-.02-.17-.04-.31-.06-.4l-.02-.11v-.03s0,0,0,0h0s0,0,0,0h0s-.07-.22-.07-.22Zm8.19.23s0,0,0,0c0,0,0,0,0,0Z"/><path class="cls-1" d="m6.05,21.62h1.92c1,0,1.81.81,1.81,1.81h0c0,1-.81,1.81-1.81,1.81h-1.92c-1,0-1.81-.81-1.81-1.81h0c0-1,.81-1.81,1.81-1.81Z"/></svg>