<?xml version="1.0" encoding="UTF-8"?><svg id="Layer_1" xmlns="http://www.w3.org/2000/svg" viewBox="0 0 172.2 180"><defs><style>.cls-1{fill:#386641;fill-rule:evenodd;}.cls-2{fill:#faf6eb;}</style></defs><path class="cls-1" d="m57.04,0C25.54,0,0,25.54,0,57.04v29.42c0,24.36,15.27,45.15,36.75,53.33l2.9,37.7c.18,2.37,3.11,3.38,4.72,1.62l32.47-35.61h38.32c31.5,0,57.04-25.54,57.04-57.04v-29.42c0-31.5-25.54-57.04-57.04-57.04h-58.12Z"/><path class="cls-2" d="m118.07,44.52l-21.42,27.61-1.68-3.81,34.83,2.89-1.56,13.86-34.09-3.46,1.66-2.4,13.35,29.82-12.41,5.45-12.94-30,2.89.41-20.51,27.45-11.26-8.22,21.63-27.71,1.68,3.81-35.04-2.8,1.47-14.06,34.18,3.66-1.66,2.4-13.35-29.82,12.41-5.45,12.94,30-2.89-.41,20.42-27.65,11.35,8.42Z"/></svg>