<svg xmlns="http://www.w3.org/2000/svg" viewBox="0 0 208.99 208.99"><defs><style>.cls-1{fill:#f6f6f6;opacity:0.1;isolation:isolate;}.cls-2{fill:#fff;}</style></defs><title>Asset 9</title><g id="Layer_2" data-name="Layer 2"><g id="Layer_1-2" data-name="Layer 1"><path class="cls-1" d="M0,104.71C.42,162.55,47.29,209,104.7,209c57.84-.43,104.71-47.29,104.28-105.13C209,46.44,161.7-.42,104.28,0,46.44,0,0,47.29,0,104.71Z"/><path class="cls-2" d="M104.54,56.52a28.92,28.92,0,1,1-11.12,2.19A28.91,28.91,0,0,1,104.54,56.52Z"/><path class="cls-2" d="M132.26,140.57a6.85,6.85,0,0,1-2.86,5.94,19,19,0,0,1-6.34,3.34,49.36,49.36,0,0,1-9.55,2.11,68.48,68.48,0,0,1-7.43.49,66.78,66.78,0,0,1-8.37-.31,48.31,48.31,0,0,1-10.38-2,22.14,22.14,0,0,1-6.65-3.08,10.1,10.1,0,0,1-2.46-2.42,6.33,6.33,0,0,1-1.1-4.09,29.69,29.69,0,0,1,.7-5.86,28,28,0,0,1,5-10.43,7.42,7.42,0,0,1,2.3-2,7.26,7.26,0,0,1,2.93-.94,8.29,8.29,0,0,1,3.92.44,40.06,40.06,0,0,0,9.24,2,37.85,37.85,0,0,0,16.28-2,8,8,0,0,1,9.51,3.08,27.9,27.9,0,0,1,4.4,10.12A26.83,26.83,0,0,1,132.26,140.57Z"/></g></g></svg>